@startuml
class Rectangle {
  + int x_size
  + int x_centre
  + int y_size
  + int y_centre
}

class SomePosition {
  + double position
}

Client --> ScanParameters : specifies >
Client --> StepParameters : specifies >
ScanParameters *--> Frame
StepParameters *--> Frame

Frame *--> Rectangle

Frame *--> “0..1” Something : might contain >

Frame --> SomePosition : converted to >
SomePosition --> SomePeripheral : applied to >
SomePosition --> SomeBalanceMass : influences > 


@enduml
